<svg width="10" height="11" viewBox="0 0 10 11" fill="none" xmlns="http://www.w3.org/2000/svg">
<path fill-rule="evenodd" clip-rule="evenodd" d="M0.533203 6.7786C0.542351 7.97655 1.52007 8.94082 2.71808 8.93331H3.0142L3.88963 9.85675C3.97846 9.94836 4.10061 10.0001 4.22823 10.0001C4.35585 10.0001 4.47799 9.94836 4.56682 9.85675L5.44225 8.93331H5.73837C6.93541 8.93946 7.91161 7.97563 7.92079 6.7786V4.156C7.91161 2.95799 6.93393 1.99377 5.73591 2.00127H2.71931C1.52082 1.99308 0.542351 2.9575 0.533203 4.156V6.7786Z" stroke="#F5F5F5" stroke-linecap="round" stroke-linejoin="round"/>
<mask id="path-2-inside-1_155_32" fill="white">
<path d="M1.61035 2.00117C1.61035 2.25617 1.81707 2.4629 2.07208 2.4629C2.32708 2.4629 2.5338 2.25617 2.5338 2.00117H1.61035ZM7.27355 0.462092V0.923896L7.28211 0.923736L7.27355 0.462092ZM9.45966 2.56879H9.92144L9.92132 2.56026L9.45966 2.56879ZM7.92058 6.77232C7.66558 6.77232 7.45886 6.97905 7.45886 7.23404C7.45886 7.48904 7.66558 7.69577 7.92058 7.69577V6.77232ZM2.37989 4.30979C2.12489 4.30979 1.91817 4.51652 1.91817 4.77152C1.91817 5.02651 2.12489 5.23324 2.37989 5.23324V4.30979ZM5.92901 5.23324C6.18401 5.23324 6.39073 5.02651 6.39073 4.77152C6.39073 4.51652 6.18401 4.30979 5.92901 4.30979V5.23324ZM2.82376 5.60754C2.56876 5.60754 2.36204 5.81427 2.36204 6.06927C2.36204 6.32426 2.56876 6.53099 2.82376 6.53099V5.60754ZM5.48514 6.53099C5.74013 6.53099 5.94686 6.32426 5.94686 6.06927C5.94686 5.81427 5.74013 5.60754 5.48514 5.60754V6.53099ZM2.5338 2.00117C2.5338 1.57686 2.69739 1.34388 2.95112 1.1903C3.24067 1.01503 3.68706 0.923816 4.25695 0.923816V0.000368278C3.62021 0.000368278 2.97416 0.0969116 2.47293 0.400301C1.93588 0.72538 1.61035 1.26194 1.61035 2.00117H2.5338ZM4.25695 0.923816L7.27355 0.923896V0.000368278H4.25695V0.923816ZM7.28211 0.923736C7.72893 0.915456 8.16074 1.08503 8.48253 1.39513L9.12334 0.730194C8.62517 0.25013 7.95672 -0.0123692 7.26499 0.000448272L7.28211 0.923736ZM8.48253 1.39513C8.80432 1.70524 8.98975 2.13049 8.998 2.57731L9.92132 2.56026C9.90852 1.86855 9.62151 1.21025 9.12334 0.730194L8.48253 1.39513ZM8.99794 2.56879V5.12735H9.92138L9.92144 2.56879H8.99794ZM8.99794 5.12735C8.99794 5.68622 8.92055 6.10762 8.75692 6.37789C8.61957 6.60468 8.39468 6.77232 7.92058 6.77232V7.69577C8.67775 7.69577 9.2224 7.39183 9.54677 6.85617C9.84486 6.36397 9.92138 5.73203 9.92138 5.12735H8.99794ZM2.37989 5.23324H5.92901V4.30979H2.37989V5.23324ZM2.82376 6.53099H5.48514V5.60754H2.82376V6.53099Z"/>
</mask>
<path d="M1.61035 2.00117C1.61035 2.25617 1.81707 2.4629 2.07208 2.4629C2.32708 2.4629 2.5338 2.25617 2.5338 2.00117H1.61035ZM7.27355 0.462092V0.923896L7.28211 0.923736L7.27355 0.462092ZM9.45966 2.56879H9.92144L9.92132 2.56026L9.45966 2.56879ZM7.92058 6.77232C7.66558 6.77232 7.45886 6.97905 7.45886 7.23404C7.45886 7.48904 7.66558 7.69577 7.92058 7.69577V6.77232ZM2.37989 4.30979C2.12489 4.30979 1.91817 4.51652 1.91817 4.77152C1.91817 5.02651 2.12489 5.23324 2.37989 5.23324V4.30979ZM5.92901 5.23324C6.18401 5.23324 6.39073 5.02651 6.39073 4.77152C6.39073 4.51652 6.18401 4.30979 5.92901 4.30979V5.23324ZM2.82376 5.60754C2.56876 5.60754 2.36204 5.81427 2.36204 6.06927C2.36204 6.32426 2.56876 6.53099 2.82376 6.53099V5.60754ZM5.48514 6.53099C5.74013 6.53099 5.94686 6.32426 5.94686 6.06927C5.94686 5.81427 5.74013 5.60754 5.48514 5.60754V6.53099ZM2.5338 2.00117C2.5338 1.57686 2.69739 1.34388 2.95112 1.1903C3.24067 1.01503 3.68706 0.923816 4.25695 0.923816V0.000368278C3.62021 0.000368278 2.97416 0.0969116 2.47293 0.400301C1.93588 0.72538 1.61035 1.26194 1.61035 2.00117H2.5338ZM4.25695 0.923816L7.27355 0.923896V0.000368278H4.25695V0.923816ZM7.28211 0.923736C7.72893 0.915456 8.16074 1.08503 8.48253 1.39513L9.12334 0.730194C8.62517 0.25013 7.95672 -0.0123692 7.26499 0.000448272L7.28211 0.923736ZM8.48253 1.39513C8.80432 1.70524 8.98975 2.13049 8.998 2.57731L9.92132 2.56026C9.90852 1.86855 9.62151 1.21025 9.12334 0.730194L8.48253 1.39513ZM8.99794 2.56879V5.12735H9.92138L9.92144 2.56879H8.99794ZM8.99794 5.12735C8.99794 5.68622 8.92055 6.10762 8.75692 6.37789C8.61957 6.60468 8.39468 6.77232 7.92058 6.77232V7.69577C8.67775 7.69577 9.2224 7.39183 9.54677 6.85617C9.84486 6.36397 9.92138 5.73203 9.92138 5.12735H8.99794ZM2.37989 5.23324H5.92901V4.30979H2.37989V5.23324ZM2.82376 6.53099H5.48514V5.60754H2.82376V6.53099Z" fill="black"/>
<path d="M8.48253 1.39513L8.12249 1.04819L8.84255 1.74209L8.48253 1.39513ZM2.5338 2.00117V1.50117H1.61035V2.00117V2.50117H2.5338V2.00117ZM8.8029 1.06266L8.44286 0.715717L8.12249 1.04819L8.48253 1.39513L8.84257 1.74207L9.16295 1.4096L8.8029 1.06266ZM7.92058 7.69577H8.42058V6.77232H7.92058H7.42058V7.69577H7.92058ZM2.37989 5.23324H2.87989V4.30979H2.37989H1.87989V5.23324H2.37989ZM5.92901 4.30979H5.42901V5.23324H5.92901H6.42901V4.30979H5.92901ZM2.82376 6.53099H3.32376V5.60754H2.82376H2.32376V6.53099H2.82376ZM5.48514 5.60754H4.98514V6.53099H5.48514H5.98514V5.60754H5.48514ZM4.25695 0.923816H4.75695V0.000368278H4.25695H3.75695V0.923816H4.25695ZM8.48253 1.39513L8.84255 1.74209L9.48336 1.07716L9.12334 0.730194L8.76331 0.383233L8.1225 1.04817L8.48253 1.39513ZM8.99794 5.12735V5.62735H9.92138V5.12735V4.62735H8.99794V5.12735ZM7.27355 0.462092L8.27338 0.443558L6.27355 0.462092H7.27355ZM7.27355 0.923896L7.27352 1.9239L7.28288 1.9239L7.29224 1.92372L7.27355 0.923896ZM8.48253 1.39513L9.17645 0.67508L9.17644 0.675073L8.48253 1.39513ZM9.45966 2.56879L9.44119 1.56896L9.45966 3.56879V2.56879ZM9.92144 2.56879L10.9214 2.56881L10.9214 2.56164L10.9213 2.55446L9.92144 2.56879ZM9.92132 2.56026L10.9212 2.54594L10.9212 2.54175L9.92132 2.56026ZM2.95112 1.1903L3.46893 2.0458L3.46896 2.04578L2.95112 1.1903ZM4.25695 0.923816L4.25698 -0.0761838H4.25695V0.923816ZM2.47293 0.400301L1.95511 -0.455188L1.95511 -0.455185L2.47293 0.400301ZM7.27355 0.000368278H8.27355V-0.999632H7.27355V0.000368278ZM9.12334 0.730194L8.42944 1.45026L8.42944 1.45027L9.12334 0.730194ZM7.26499 0.000448272L7.24647 -0.99938L6.24663 -0.980853L6.26517 0.0189814L7.26499 0.000448272ZM8.998 2.57731L7.99817 2.59577L8.01663 3.59561L9.01646 3.57714L8.998 2.57731ZM8.99794 2.56879V1.56879H7.99794V2.56879H8.99794ZM9.92138 5.12735L8.92138 5.12733V5.12735H9.92138ZM8.75692 6.37789L9.61229 6.89589L9.61234 6.89582L8.75692 6.37789ZM9.54677 6.85617L8.69141 6.33814L8.69139 6.33818L9.54677 6.85617ZM1.61035 2.00117H0.610352C0.610352 2.80846 1.26479 3.4629 2.07208 3.4629V2.4629V1.4629C2.36936 1.4629 2.61035 1.70389 2.61035 2.00117H1.61035ZM2.07208 2.4629V3.4629C2.87936 3.4629 3.5338 2.80846 3.5338 2.00117H2.5338H1.5338C1.5338 1.70389 1.77479 1.4629 2.07208 1.4629V2.4629ZM7.27355 0.462092H6.27355V0.923896H7.27355H8.27355V0.462092H7.27355ZM7.27355 0.923896L7.29224 1.92372L7.3008 1.92356L7.28211 0.923736L7.26342 -0.0760889L7.25486 -0.0759289L7.27355 0.923896ZM7.28211 0.923736L8.28194 0.905202L8.27338 0.443558L7.27355 0.462092L6.27372 0.480627L6.28228 0.942271L7.28211 0.923736ZM9.45966 2.56879V3.56879H9.92144V2.56879V1.56879H9.45966V2.56879ZM9.92144 2.56879L10.9213 2.55446L10.9212 2.54594L9.92132 2.56026L8.92143 2.57458L8.92155 2.58311L9.92144 2.56879ZM9.92132 2.56026L9.90286 1.56043L9.44119 1.56896L9.45966 2.56879L9.47813 3.56861L9.93979 3.56009L9.92132 2.56026ZM7.92058 6.77232V5.77232C7.1133 5.77232 6.45886 6.42677 6.45886 7.23404H7.45886H8.45886C8.45886 7.53133 8.21787 7.77232 7.92058 7.77232V6.77232ZM7.45886 7.23404H6.45886C6.45886 8.04132 7.1133 8.69577 7.92058 8.69577V7.69577V6.69577C8.21787 6.69577 8.45886 6.93675 8.45886 7.23404H7.45886ZM2.37989 4.30979V3.30979C1.5726 3.30979 0.918168 3.96425 0.918168 4.77152H1.91817H2.91817C2.91817 5.0688 2.67718 5.30979 2.37989 5.30979V4.30979ZM1.91817 4.77152H0.918168C0.918168 5.57879 1.5726 6.23324 2.37989 6.23324V5.23324V4.23324C2.67718 4.23324 2.91817 4.47424 2.91817 4.77152H1.91817ZM5.92901 5.23324V6.23324C6.73629 6.23324 7.39073 5.5788 7.39073 4.77152H6.39073H5.39073C5.39073 4.47423 5.63172 4.23324 5.92901 4.23324V5.23324ZM6.39073 4.77152H7.39073C7.39073 3.96424 6.73629 3.30979 5.92901 3.30979V4.30979V5.30979C5.63172 5.30979 5.39073 5.06881 5.39073 4.77152H6.39073ZM2.82376 5.60754V4.60754C2.01647 4.60754 1.36204 5.262 1.36204 6.06927H2.36204H3.36204C3.36204 6.36655 3.12105 6.60754 2.82376 6.60754V5.60754ZM2.36204 6.06927H1.36204C1.36204 6.87654 2.01647 7.53099 2.82376 7.53099V6.53099V5.53099C3.12105 5.53099 3.36204 5.77199 3.36204 6.06927H2.36204ZM5.48514 6.53099V7.53099C6.29242 7.53099 6.94686 6.87655 6.94686 6.06927H5.94686H4.94686C4.94686 5.77198 5.18785 5.53099 5.48514 5.53099V6.53099ZM5.94686 6.06927H6.94686C6.94686 5.26199 6.29242 4.60754 5.48514 4.60754V5.60754V6.60754C5.18785 6.60754 4.94686 6.36656 4.94686 6.06927H5.94686ZM2.5338 2.00117H3.5338C3.5338 1.95895 3.5379 1.94112 3.53788 1.94123C3.53755 1.94263 3.53362 1.95801 3.52111 1.98049C3.50845 2.00326 3.49309 2.02231 3.47931 2.03584C3.46655 2.04836 3.46049 2.05091 3.46893 2.0458L2.95112 1.1903L2.4333 0.334811C2.19198 0.480878 1.94823 0.693972 1.77351 1.00793C1.6005 1.31882 1.5338 1.6592 1.5338 2.00117H2.5338ZM2.95112 1.1903L3.46896 2.04578C3.52919 2.00932 3.75931 1.92382 4.25695 1.92382V0.923816V-0.0761838C3.61482 -0.0761838 2.95214 0.0207482 2.43328 0.334826L2.95112 1.1903ZM4.25695 0.000368278V-0.999632C3.54768 -0.999632 2.6855 -0.897288 1.95511 -0.455188L2.47293 0.400301L2.99075 1.25579C3.26282 1.09111 3.69273 1.00037 4.25695 1.00037V0.000368278ZM2.47293 0.400301L1.95511 -0.455185C1.11103 0.0557323 0.610352 0.921163 0.610352 2.00117H1.61035H2.61035C2.61035 1.60272 2.76072 1.39503 2.99076 1.25579L2.47293 0.400301ZM4.25695 0.923816L4.25693 1.92382L7.27352 1.9239L7.27355 0.923896L7.27358 -0.0761037L4.25698 -0.0761838L4.25695 0.923816ZM7.27355 0.923896H8.27355V0.000368278H7.27355H6.27355V0.923896H7.27355ZM7.27355 0.000368278V-0.999632H4.25695V0.000368278V1.00037H7.27355V0.000368278ZM7.28211 0.923736L7.30064 1.92356C7.48227 1.9202 7.6578 1.98913 7.78862 2.11519L8.48253 1.39513L9.17644 0.675073C8.66367 0.180923 7.97559 -0.0892865 7.26358 -0.076092L7.28211 0.923736ZM9.12334 0.730194L9.81724 0.0101229C9.1281 -0.653974 8.20338 -1.01711 7.24647 -0.99938L7.26499 0.000448272L7.28352 1.00028C7.71006 0.992373 8.12224 1.15423 8.42944 1.45026L9.12334 0.730194ZM7.26499 0.000448272L6.26517 0.0189814L6.28228 0.942269L7.28211 0.923736L8.28194 0.905203L8.26482 -0.0180848L7.26499 0.000448272ZM8.48253 1.39513L7.78861 2.11518C7.91944 2.24127 7.99481 2.41414 7.99817 2.59577L8.998 2.57731L9.99783 2.55885C9.98468 1.84683 9.6892 1.16922 9.17645 0.67508L8.48253 1.39513ZM8.998 2.57731L9.01646 3.57714L9.93979 3.56009L9.92132 2.56026L9.90286 1.56043L8.97953 1.57748L8.998 2.57731ZM9.92132 2.56026L10.9212 2.54175C10.9034 1.58493 10.5064 0.674247 9.81724 0.0101184L9.12334 0.730194L8.42944 1.45027C8.7366 1.74626 8.9136 2.15218 8.92149 2.57877L9.92132 2.56026ZM8.99794 2.56879H7.99794V5.12735H8.99794H9.99794V2.56879H8.99794ZM9.92138 5.12735L10.9214 5.12738L10.9214 2.56881L9.92144 2.56879L8.92144 2.56876L8.92138 5.12733L9.92138 5.12735ZM9.92144 2.56879V1.56879H8.99794V2.56879V3.56879H9.92144V2.56879ZM8.99794 5.12735H7.99794C7.99794 5.36423 7.98124 5.54355 7.95644 5.67377C7.94426 5.73774 7.93119 5.7841 7.92002 5.81593C7.90884 5.84781 7.90118 5.86048 7.90149 5.85996L8.75692 6.37789L9.61234 6.89582C9.92166 6.38493 9.99794 5.73515 9.99794 5.12735H8.99794ZM8.75692 6.37789L7.90154 5.85988C7.90169 5.85962 7.91024 5.84564 7.92931 5.82664C7.94947 5.80656 7.97325 5.78902 7.99698 5.77645C8.04539 5.75081 8.04202 5.77232 7.92058 5.77232V6.77232V7.77232C8.27324 7.77232 8.61937 7.71001 8.93308 7.54386C9.25655 7.37253 9.46997 7.1309 9.61229 6.89589L8.75692 6.37789ZM7.92058 7.69577V8.69577C8.98314 8.69577 9.87471 8.24517 10.4022 7.37416L9.54677 6.85617L8.69139 6.33818C8.57009 6.53849 8.37235 6.69577 7.92058 6.69577V7.69577ZM9.54677 6.85617L10.4021 7.3742C10.8457 6.64183 10.9214 5.78202 10.9214 5.12735H9.92138H8.92138C8.92138 5.68203 8.84404 6.08611 8.69141 6.33814L9.54677 6.85617ZM2.37989 5.23324V6.23324H5.92901V5.23324V4.23324H2.37989V5.23324ZM5.92901 4.30979V3.30979H2.37989V4.30979V5.30979H5.92901V4.30979ZM2.82376 6.53099V7.53099H5.48514V6.53099V5.53099H2.82376V6.53099ZM5.48514 5.60754V4.60754H2.82376V5.60754V6.60754H5.48514V5.60754Z" fill="#F5F5F5" mask="url(#path-2-inside-1_155_32)"/>
</svg>
