<svg width="43" height="54" viewBox="0 0 43 54" fill="none" xmlns="http://www.w3.org/2000/svg">
<path d="M33.7574 0H9.24266C6.79289 0.00548308 4.4449 1.07727 2.71262 2.98073C0.980427 4.8842 0.00501741 7.46426 1.80736e-05 10.1562V47.8731C-0.00261863 49.0098 0.283289 50.1248 0.825627 51.0927C1.36799 52.0607 2.1453 52.8433 3.07023 53.3525C3.99506 53.8617 5.03084 54.0774 6.06113 53.9753C7.09143 53.8732 8.07533 53.4574 8.90244 52.7746L20.4321 43.2831C20.7424 43.0302 21.1184 42.8937 21.5047 42.8937C21.8911 42.8937 22.2671 43.0302 22.5774 43.2831L34.0976 52.7643C34.9237 53.4474 35.907 53.8638 36.9367 53.9666C37.9664 54.0695 39.0018 53.8548 39.9266 53.3467C40.8514 52.8386 41.629 52.0573 42.1718 51.0903C42.7148 50.1233 43.0016 49.0093 43 47.8731V10.1562C42.995 7.46426 42.0196 4.8842 40.2874 2.98073C38.5551 1.07727 36.2071 0.00548308 33.7574 0Z" fill="#6C6C6C"/>
</svg>
