<svg width="28" height="26" viewBox="0 0 28 26" fill="none" xmlns="http://www.w3.org/2000/svg">
<path d="M19.4791 4.94434H7.11352C3.19111 4.94434 0 7.13545 0 11.0578V18.4773C0 22.3997 3.19111 24.5908 7.11352 24.5908H19.4791C23.4015 24.5908 26.5926 22.3997 26.5926 18.4773V11.0578C26.5926 7.13545 23.4015 4.94434 19.4791 4.94434ZM16.6204 12.3211C16.6204 11.5898 17.2187 10.9914 17.95 10.9914C18.6813 10.9914 19.2796 11.5898 19.2796 12.3211C19.2796 13.0524 18.6813 13.6639 17.95 13.6639C17.2187 13.6639 16.6204 13.079 16.6204 12.3477V12.3211ZM10.8099 17.7061C10.6104 17.9055 10.3578 17.9986 10.1052 17.9986C9.85255 17.9986 9.59992 17.9055 9.40048 17.7061L8.03096 16.3364L6.71463 17.6529C6.51518 17.8523 6.26255 17.9454 6.00992 17.9454C5.75729 17.9454 5.50466 17.8523 5.30522 17.6529C4.91963 17.2673 4.91963 16.6289 5.30522 16.2435L6.62155 14.9271L5.34511 13.6507C4.95952 13.2651 4.95952 12.6269 5.34511 12.2413C5.7307 11.8557 6.36892 11.8557 6.75452 12.2413L8.03096 13.5177L9.34729 12.2014C9.73289 11.8158 10.3711 11.8158 10.7567 12.2014C11.1423 12.587 11.1423 13.2252 10.7567 13.6107L9.44037 14.9271L10.8099 16.2967C11.1955 16.6823 11.1955 17.3205 10.8099 17.7061ZM15.3439 16.2834C14.6126 16.2834 14.001 15.685 14.001 14.9537C14.001 14.2224 14.586 13.6241 15.3173 13.6241H15.3439C16.0752 13.6241 16.6735 14.2224 16.6735 14.9537C16.6735 15.685 16.0885 16.2834 15.3439 16.2834ZM17.95 18.9027C17.2187 18.9027 16.6204 18.3177 16.6204 17.5864V17.5597C16.6204 16.8284 17.2187 16.23 17.95 16.23C18.6813 16.23 19.2796 16.8284 19.2796 17.5597C19.2796 18.291 18.6946 18.9027 17.95 18.9027ZM20.5827 16.2834C19.8514 16.2834 19.2397 15.685 19.2397 14.9537C19.2397 14.2224 19.8248 13.6241 20.5561 13.6241H20.5827C21.314 13.6241 21.9123 14.2224 21.9123 14.9537C21.9123 15.685 21.3273 16.2834 20.5827 16.2834Z" fill="#6C6C6C"/>
<path d="M15.4759 0.944037L15.4626 2.19389C15.4493 3.36396 14.4787 4.33459 13.2953 4.33459C13.0959 4.33459 12.9762 4.46755 12.9762 4.64041C12.9762 4.81326 13.1092 4.94622 13.282 4.94622H11.1413C11.128 4.85315 11.1147 4.74678 11.1147 4.64041C11.1147 3.44374 12.0854 2.47311 13.2687 2.47311C13.4682 2.47311 13.6012 2.34015 13.6012 2.1673L13.6144 0.917444C13.6277 0.412185 14.0399 0 14.5452 0H14.5585C15.077 0 15.4759 0.425481 15.4759 0.944037Z" fill="#6C6C6C"/>
<path d="M21.9994 14C20.3969 14 18.8899 14.6242 17.7569 15.7575C16.6235 16.8905 15.9994 18.3975 15.9994 20C15.9994 21.6025 16.6235 23.1095 17.7569 24.2425C18.8899 25.3758 20.3969 26 21.9994 26C23.6019 26 25.1089 25.3758 26.2419 24.2425C27.3752 23.1095 27.9994 21.6025 27.9994 20C27.9994 18.3975 27.3752 16.8905 26.2419 15.7575C25.1089 14.6242 23.6019 14 21.9994 14ZM21.9994 25.1597C19.1543 25.1597 16.8397 22.8451 16.8397 20C16.8397 17.1549 19.1543 14.8403 21.9994 14.8403C24.8445 14.8403 27.1591 17.1549 27.1591 20C27.1591 22.8451 24.8445 25.1597 21.9994 25.1597Z" fill="#F5F5F5"/>
<path d="M24.4074 16.7393C23.9864 16.7393 23.591 16.9031 23.2932 17.2006L21.0571 19.4368L20.7055 19.0852C20.408 18.7877 20.0123 18.6235 19.5913 18.6235C19.1704 18.6235 18.7747 18.7874 18.4772 19.0849C18.18 19.3821 18.0161 19.7779 18.0161 20.199C18.0161 20.6202 18.18 21.0157 18.4772 21.3132L19.9784 22.8144C20.2664 23.1024 20.6495 23.261 21.0571 23.261C21.4646 23.261 21.8474 23.1024 22.1358 22.8144L25.5215 19.4286C25.8187 19.1314 25.9826 18.7357 25.9826 18.3145C25.9826 17.8933 25.8187 17.4979 25.5215 17.2006C25.224 16.9031 24.8283 16.7393 24.4074 16.7393ZM24.9273 18.8347L21.5418 22.2204C21.4123 22.3498 21.2404 22.421 21.0573 22.421C20.8743 22.421 20.7023 22.3498 20.5729 22.2204L19.0717 20.7192C18.933 20.5806 18.8569 20.396 18.8569 20.1993C18.8569 20.0026 18.9333 19.818 19.072 19.6794C19.2109 19.5405 19.3955 19.4641 19.5919 19.4641C19.7883 19.4641 19.9729 19.5405 20.1118 19.6794L20.7606 20.328C20.9247 20.4921 21.1907 20.4921 21.3548 20.328L23.888 17.7948C24.0269 17.6559 24.2115 17.5795 24.4079 17.5795C24.6043 17.5795 24.7889 17.6559 24.9278 17.7948C25.0664 17.9335 25.1426 18.1181 25.1426 18.3148C25.1426 18.5114 25.0659 18.696 24.9273 18.8347Z" fill="#F5F5F5"/>
</svg>
