<svg width="49" height="49" viewBox="0 0 49 49" fill="none" xmlns="http://www.w3.org/2000/svg">
<rect x="0.5" y="0.5" width="48" height="48" rx="9.5" stroke="#7E7E7E"/>
<path d="M33.1878 34.2351L30.5311 32.2417C30.2273 32.0134 29.6719 31.8301 29.2926 31.8301H25.7211V32.292C25.7211 33.0542 25.1027 33.6725 24.3442 33.6725C23.5838 33.6725 22.9655 33.0542 22.9655 32.292V31.8301H19.3939C19.0146 31.8301 18.4574 32.017 18.1554 32.2417L15.4988 34.2351C15.1932 34.4598 15.2561 34.6467 15.6336 34.6467H33.0512C33.4305 34.6467 33.4934 34.4598 33.1878 34.2351Z" fill="#7E7E7E"/>
<path d="M8.50781 8.51758H40.1807C40.6322 8.51758 41.011 8.86581 41.0596 9.30957L41.0645 9.39941V27.2979C41.0642 27.7779 40.6652 28.1758 40.1826 28.1758H24.5332V32.291C24.5331 32.3993 24.4461 32.4824 24.3447 32.4824C24.2426 32.4823 24.1564 32.4001 24.1562 32.291V28.1758H8.50781C8.02611 28.1758 7.62722 27.7788 7.62695 27.2979V9.39648C7.62695 8.91536 8.02594 8.51758 8.50781 8.51758Z" stroke="#7E7E7E"/>
<path d="M40.9924 15.2422H31.1871C30.3189 15.2422 29.6035 15.954 29.6035 16.8258V40.2865C29.6035 41.1565 30.3153 41.8719 31.1871 41.8719H40.9924C41.8605 41.8719 42.5759 41.1601 42.5759 40.2865V16.8276C42.5741 15.9558 41.8605 15.2422 40.9924 15.2422ZM36.0888 39.5334C35.4327 39.5334 34.8989 39.0031 34.8989 38.347C34.8989 37.6927 35.4327 37.1589 36.0888 37.1589C36.7449 37.1589 37.2752 37.6927 37.2752 38.347C37.277 39.0031 36.7467 39.5334 36.0888 39.5334ZM39.256 25.6208H32.9235C32.0535 25.6208 31.3399 24.9863 31.3399 24.2152C31.3399 23.4405 32.0517 22.8078 32.9235 22.8078H39.256C40.126 22.8078 40.8414 23.4423 40.8414 24.2152C40.8414 24.9881 40.126 25.6208 39.256 25.6208ZM39.256 21.2224H32.9235C32.0535 21.2224 31.3399 20.5897 31.3399 19.815C31.3399 19.0421 32.0517 18.4094 32.9235 18.4094H39.256C40.126 18.4094 40.8414 19.0439 40.8414 19.815C40.8414 20.5897 40.126 21.2224 39.256 21.2224Z" fill="#7E7E7E"/>
</svg>
