<svg width="106" height="106" viewBox="0 0 106 106" fill="none" xmlns="http://www.w3.org/2000/svg">
<path d="M87.6348 87.7811C106.789 68.5451 106.789 37.4036 87.6348 18.2168" stroke="#212121" stroke-width="7" stroke-linecap="round" stroke-linejoin="round"/>
<path d="M18.3656 18.2168C-0.788544 37.4528 -0.788544 68.5943 18.3656 87.7811" stroke="#212121" stroke-width="7" stroke-linecap="round" stroke-linejoin="round"/>
<path d="M36.834 99.293C42.0757 101.113 47.513 101.999 52.9997 101.999C58.4863 101.95 63.9239 101.113 69.1656 99.293" stroke="#212121" stroke-width="7" stroke-linecap="round" stroke-linejoin="round"/>
<path d="M36.834 6.70608C42.0757 4.88579 47.513 4 52.9997 4C58.4863 4 63.9239 4.88579 69.1656 6.70608" stroke="#212121" stroke-width="7" stroke-linecap="round" stroke-linejoin="round"/>
<path d="M37.0293 53.0012V44.7858C37.0293 34.5527 44.2305 30.3708 53.0483 35.4873L60.1515 39.62L67.2547 43.7522C76.0725 48.8687 76.0725 57.2326 67.2547 62.3491L60.1515 66.4811L53.0483 70.6142C44.2305 75.7307 37.0293 71.5484 37.0293 61.3155V53.0012Z" stroke="#212121" stroke-width="7" stroke-miterlimit="10" stroke-linecap="round" stroke-linejoin="round"/>
</svg>
