<svg width="49" height="49" viewBox="0 0 49 49" fill="none" xmlns="http://www.w3.org/2000/svg">
<rect x="0.5" y="0.5" width="48" height="48" rx="9.5" stroke="#7E7E7E"/>
<path d="M8.01265 35.3796C4.84637 34.4814 4.32222 32.6309 5.75864 31.5559C6.79362 30.8832 7.98331 30.2976 9.24235 29.857L9.35838 29.8214L18.7172 26.5029V30.3147L12.0085 32.7403C10.8335 33.1875 10.6334 33.7823 11.6097 34.1015C12.0965 34.2242 12.654 34.2954 13.2289 34.2954C14.0491 34.2954 14.8347 34.1516 15.5616 33.8892L15.5149 33.9037L18.7452 32.7403V36.1591C18.5451 36.2079 18.3184 36.2317 18.0957 36.2792C17.062 36.4585 15.8723 36.5614 14.6586 36.5614C12.2873 36.5614 10.0092 36.1684 7.88594 35.4456L8.03265 35.4891L8.01265 35.3796ZM27.7345 35.77L38.2283 32.0202C39.4193 31.5955 39.6047 30.99 38.6378 30.6722C38.1536 30.5548 37.5988 30.4875 37.0266 30.4875C36.197 30.4875 35.3995 30.63 34.6606 30.8898L34.7099 30.8753L27.7012 33.3471V29.4125L28.1013 29.2727C29.5017 28.8124 31.1475 28.455 32.8454 28.269L32.9561 28.2584C33.5803 28.1925 34.3031 28.1556 35.0354 28.1556C37.5388 28.1556 39.9395 28.5921 42.1615 29.3941L42.0174 29.3479C45.097 30.3385 45.4171 31.7735 44.6436 32.7628C43.898 33.4974 42.9964 34.0791 41.9921 34.4537L41.9401 34.4708L27.6998 39.5924V35.8083L27.7345 35.77ZM19.9749 9V37.9213L26.4995 40V15.7439C26.4995 14.607 27.0063 13.8473 27.8225 14.1111C28.8829 14.4078 29.0896 15.4525 29.0896 16.5921V26.276C33.1575 28.2426 36.3598 26.2721 36.3598 21.0805C36.3598 15.7453 34.4832 13.3751 28.9629 11.4757C26.5822 10.621 23.5746 9.76897 20.4977 9.09497L19.9789 9H19.9749Z" fill="#7E7E7E"/>
</svg>
