<svg width="49" height="49" viewBox="0 0 49 49" fill="none" xmlns="http://www.w3.org/2000/svg">
<rect x="0.5" y="0.5" width="48" height="48" rx="9.5" stroke="#7E7E7E"/>
<path d="M26.9477 38H31.0829C34.8798 38 38 34.8798 38 31.0829V17.9171C38 14.1202 34.8798 11 31.0829 11H26.8642C26.7807 11 26.6929 11.0835 26.6929 11.1671V37.8329C26.6929 37.9165 26.7764 38 26.9477 38ZM32.0938 23.1508C33.6142 23.1508 34.7921 24.4165 34.7921 25.8492C34.7921 27.3696 33.5264 28.5475 32.0938 28.5475C30.5733 28.5475 29.3954 27.3696 29.3954 25.8492C29.3077 24.3329 30.5733 23.1508 32.0938 23.1508ZM23.8233 11H17.9171C14.1202 11 11 14.1202 11 17.9171V31.0829C11 34.8798 14.1202 38 17.9171 38H23.8233C23.9068 38 23.9946 37.9165 23.9946 37.8329V11.1671C23.9946 11.0835 23.9111 11 23.8233 11ZM21.8852 35.8071H17.9171C15.3023 35.8071 13.1929 33.6977 13.1929 31.0829V17.9171C13.1929 15.3023 15.3023 13.1929 17.9171 13.1929H21.8017L21.8852 35.8071ZM15.2188 19.0992C15.2188 20.5318 16.3173 21.6304 17.75 21.6304C19.1827 21.6304 20.2812 20.5318 20.2812 19.0992C20.2812 17.6665 19.1827 16.5679 17.75 16.5679C16.3173 16.5679 15.2188 17.6665 15.2188 19.0992Z" fill="#7E7E7E"/>
</svg>
