<svg width="61" height="68" viewBox="0 0 61 68" fill="none" xmlns="http://www.w3.org/2000/svg">
<path d="M0 14.8636C0 13.2218 1.17045 11.8909 2.61429 11.8909L11.6431 11.8893C13.437 11.8376 15.0196 10.5406 15.63 8.62175C15.6461 8.57129 15.6645 8.50907 15.7307 8.28326L16.1198 6.9559C16.3578 6.14206 16.5652 5.433 16.8555 4.79925C18.0021 2.2955 20.1235 0.556868 22.575 0.111738C23.1955 -0.000942792 23.8527 -0.000468094 24.6071 7.41282e-05H36.3936C37.148 -0.000468094 37.8051 -0.000942792 38.4256 0.111738C40.8771 0.556868 42.9986 2.2955 44.145 4.79925C44.4354 5.433 44.6428 6.14206 44.8807 6.9559L45.2698 8.28326C45.3359 8.50907 45.3545 8.57129 45.3704 8.62175C45.9811 10.5406 47.8775 11.8392 49.6713 11.8909H58.3858C59.8295 11.8909 61 13.2218 61 14.8636C61 16.5054 59.8295 17.8363 58.3858 17.8363H2.61429C1.17045 17.8363 0 16.5054 0 14.8636Z" fill="#6C6C6C"/>
<path fill-rule="evenodd" clip-rule="evenodd" d="M21.7753 32.1316C23.172 31.9846 24.4175 33.0575 24.5571 34.5276L26.2516 52.364C26.3912 53.8341 25.3721 55.1453 23.9756 55.2923C22.5788 55.4394 21.3332 54.3665 21.1936 52.8964L19.4991 35.06C19.3594 33.5899 20.3785 32.2787 21.7753 32.1316Z" fill="#6C6C6C"/>
<path fill-rule="evenodd" clip-rule="evenodd" d="M39.2255 32.1316C40.6221 32.2787 41.6411 33.5899 41.5015 35.06L39.807 52.8964C39.6674 54.3665 38.422 55.4394 37.0251 55.2923C35.6285 55.1453 34.6095 53.8341 34.7491 52.364L36.4436 34.5276C36.5832 33.0575 37.8286 31.9846 39.2255 32.1316Z" fill="#6C6C6C"/>
<path opacity="0.5" d="M29.1296 67.778H31.8705C41.3008 67.778 46.0161 67.778 49.0817 64.7758C52.1476 61.7735 52.4611 56.8488 53.0883 46.999L53.9922 32.8067C54.3328 27.4624 54.5029 24.7904 52.9647 23.0971C51.4268 21.4038 48.8295 21.4038 43.6354 21.4038H17.3649C12.1705 21.4038 9.57326 21.4038 8.03528 23.0971C6.4973 24.7904 6.66749 27.4624 7.00787 32.8067L7.91172 46.999C8.53904 56.8488 8.85268 61.7735 11.9184 64.7758C14.9841 67.778 19.6993 67.778 29.1296 67.778Z" fill="#212121"/>
</svg>
