<svg width="21" height="22" viewBox="0 0 21 22" fill="none" xmlns="http://www.w3.org/2000/svg">
<path fill-rule="evenodd" clip-rule="evenodd" d="M3.44775 15.9941C2.2751 14.763 1.47974 13.2052 1.16033 11.5136C0.83827 9.81733 1.00365 8.06137 1.63625 6.46014C2.26346 4.8679 3.33425 3.50169 4.71417 2.53307C7.51394 0.567101 11.1997 0.567101 13.9994 2.53307C15.3795 3.50169 16.4502 4.8679 17.0773 6.46014C17.71 8.06137 17.8754 9.81733 17.5533 11.5136C17.2339 13.2052 16.4386 14.763 15.2658 15.9941C13.7129 17.6326 11.5821 18.5567 9.35676 18.5567C7.13157 18.5567 5.00074 17.6326 3.44775 15.9941Z" stroke="#F5F5F5" stroke-width="2" stroke-linecap="round" stroke-linejoin="round"/>
<mask id="path-2-inside-1_433_1335" fill="white">
<path d="M9.36689 4.13006C8.80839 4.1909 8.40365 4.70572 8.46277 5.27995C8.52202 5.85418 9.02276 6.27035 9.58126 6.20951L9.36689 4.13006ZM11.8772 7.60017C12.0962 8.13196 12.6929 8.38052 13.2102 8.15538C13.7274 7.93027 13.9691 7.31671 13.7501 6.78496L11.8772 7.60017ZM16.1083 15.1208C15.7109 14.7129 15.067 14.7135 14.6703 15.1222C14.2734 15.5308 14.2741 16.1928 14.6715 16.6007L16.1083 15.1208ZM19.2653 21.3154C19.6629 21.7235 20.3067 21.7229 20.7035 21.3142C21.1003 20.9054 21.0997 20.2435 20.7022 19.8355L19.2653 21.3154ZM9.58126 6.20951C10.5609 6.10278 11.4932 6.66744 11.8772 7.60017L13.7501 6.78496C13.017 5.00432 11.2372 3.9263 9.36689 4.13006L9.58126 6.20951ZM14.6715 16.6007L19.2653 21.3154L20.7022 19.8355L16.1083 15.1208L14.6715 16.6007Z"/>
</mask>
<path d="M9.36689 4.13006C8.80839 4.1909 8.40365 4.70572 8.46277 5.27995C8.52202 5.85418 9.02276 6.27035 9.58126 6.20951L9.36689 4.13006ZM11.8772 7.60017C12.0962 8.13196 12.6929 8.38052 13.2102 8.15538C13.7274 7.93027 13.9691 7.31671 13.7501 6.78496L11.8772 7.60017ZM16.1083 15.1208C15.7109 14.7129 15.067 14.7135 14.6703 15.1222C14.2734 15.5308 14.2741 16.1928 14.6715 16.6007L16.1083 15.1208ZM19.2653 21.3154C19.6629 21.7235 20.3067 21.7229 20.7035 21.3142C21.1003 20.9054 21.0997 20.2435 20.7022 19.8355L19.2653 21.3154ZM9.58126 6.20951C10.5609 6.10278 11.4932 6.66744 11.8772 7.60017L13.7501 6.78496C13.017 5.00432 11.2372 3.9263 9.36689 4.13006L9.58126 6.20951ZM14.6715 16.6007L19.2653 21.3154L20.7022 19.8355L16.1083 15.1208L14.6715 16.6007Z" fill="#F5F5F5"/>
<path d="M9.58126 6.20951L25.4969 4.56877L25.2825 2.48932L9.36689 4.13006L-6.54876 5.7708L-6.33439 7.85025L9.58126 6.20951ZM13.7501 6.78496L7.36466 -7.88561L5.49174 -7.0704L11.8772 7.60017L18.2627 22.2707L20.1356 21.4555L13.7501 6.78496ZM14.6715 16.6007L26.151 27.7461L27.5879 26.2662L16.1083 15.1208L4.62881 3.97539L3.19195 5.45532L14.6715 16.6007ZM20.7022 19.8355L9.22265 8.69009L7.78579 10.17L19.2653 21.3154L30.7448 32.4609L32.1817 30.9809L20.7022 19.8355ZM9.36689 4.13006L12.8321 35.9419L12.8325 35.9418L9.36689 4.13006ZM8.46277 5.27995L-23.369 8.55709L-23.3682 8.56453L8.46277 5.27995ZM9.58126 6.20951L13.0465 38.0213L13.047 38.0213L9.58126 6.20951ZM11.8772 7.60017L-17.7132 19.7823L-17.7123 19.7845L11.8772 7.60017ZM13.2102 8.15538L25.9807 37.4967L25.9822 37.4961L13.2102 8.15538ZM13.7501 6.78496L-15.8399 18.968L-15.8391 18.9701L13.7501 6.78496ZM16.1083 15.1208L-6.8117 37.4518L-6.81097 37.4525L16.1083 15.1208ZM14.6703 15.1222L37.6246 37.4179L37.6322 37.4101L14.6703 15.1222ZM14.6715 16.6007L-8.24856 38.9317L-8.24783 38.9324L14.6715 16.6007ZM19.2653 21.3154L42.1854 -1.01551L42.1846 -1.01626L19.2653 21.3154ZM20.7035 21.3142L43.6617 43.606L43.6655 43.6021L20.7035 21.3142ZM20.7022 19.8355L43.6222 -2.49544L43.6215 -2.49619L20.7022 19.8355ZM9.36689 4.13006L5.90167 -27.6818C-12.958 -25.6274 -25.1463 -8.70692 -23.369 8.55709L8.46277 5.27995L40.2945 2.00281C41.9536 18.1184 30.5748 34.0092 12.8321 35.9419L9.36689 4.13006ZM8.46277 5.27995L-23.3682 8.56453C-21.5732 25.9603 -5.96889 40.0927 13.0465 38.0213L9.58126 6.20951L6.11603 -25.6023C24.0144 -27.552 38.6172 -14.252 40.2937 1.99537L8.46277 5.27995ZM11.8772 7.60017L-17.7123 19.7845C-10.8986 36.3317 8.48343 45.1122 25.9807 37.4967L13.2102 8.15538L0.439728 -21.186C16.9024 -28.3512 35.091 -20.0678 41.4668 -4.58415L11.8772 7.60017ZM13.2102 8.15538L25.9822 37.4961C42.9924 30.0916 49.9769 10.7178 43.3394 -5.40017L13.7501 6.78496L-15.8391 18.9701C-22.0387 3.91561 -15.5377 -14.231 0.438243 -21.1853L13.2102 8.15538ZM16.1083 15.1208L39.0284 -7.21016C26.0538 -20.527 4.65803 -20.507 -8.29165 -7.1657L14.6703 15.1222L37.6322 37.4101C25.476 49.9339 5.36803 49.9528 -6.8117 37.4518L16.1083 15.1208ZM14.6703 15.1222L-8.28405 -7.17353C-20.7601 5.67102 -20.7343 26.1166 -8.24856 38.9317L14.6715 16.6007L37.5915 -5.73022C49.2825 6.2691 49.3069 25.3906 37.6246 37.4179L14.6703 15.1222ZM19.2653 21.3154L-3.65473 43.6464C9.31925 56.9626 30.7119 56.9428 43.6617 43.606L20.7035 21.3142L-2.25458 -0.977625C9.90142 -13.497 30.0065 -13.5157 42.1854 -1.01551L19.2653 21.3154ZM20.7035 21.3142L43.6655 43.6021C56.127 30.7636 56.1123 10.3241 43.6222 -2.49544L20.7022 19.8355L-2.21787 42.1665C-13.9128 30.163 -13.9265 11.0473 -2.25839 -0.973705L20.7035 21.3142ZM9.58126 6.20951L13.047 38.0213C-0.592752 39.5073 -12.8532 31.5874 -17.7132 19.7823L11.8772 7.60017L41.4677 -4.58198C35.8397 -18.2525 21.7146 -27.3017 6.11547 -25.6023L9.58126 6.20951ZM13.7501 6.78496L43.3402 -5.3981C37.3632 -19.9149 22.3917 -29.4782 5.90131 -27.6817L9.36689 4.13006L12.8325 35.9418C0.0827389 37.3308 -11.3292 29.9236 -15.8399 18.968L13.7501 6.78496ZM14.6715 16.6007L-8.24783 38.9324L-3.654 43.6471L19.2653 21.3154L42.1846 -1.01626L37.5908 -5.73097L14.6715 16.6007ZM20.7022 19.8355L43.6215 -2.49619L39.0277 -7.2109L16.1083 15.1208L-6.81097 37.4525L-2.21714 42.1672L20.7022 19.8355Z" fill="#F5F5F5" mask="url(#path-2-inside-1_433_1335)"/>
</svg>
