<svg width="69" height="69" viewBox="0 0 69 69" fill="none" xmlns="http://www.w3.org/2000/svg">
<circle cx="34.4997" cy="11.5547" r="8.17015" transform="rotate(-45 34.4997 11.5547)" fill="#F5F5F5"/>
<path d="M38.124 13.5732H30.9434L34.5332 7.35547L38.124 13.5732Z" stroke="#212121"/>
<circle cx="11.5543" cy="34.5" r="8.17015" transform="rotate(-45 11.5543 34.5)" fill="#F5F5F5"/>
<rect x="8.2168" y="31.4668" width="6.34986" height="6.34986" stroke="#212121"/>
<circle cx="57.445" cy="34.5" r="8.17015" transform="rotate(-45 57.445 34.5)" fill="#F5F5F5"/>
<circle cx="57.3084" cy="34.6423" r="3.90992" stroke="#212121"/>
<circle cx="34.4997" cy="57.4453" r="8.17015" transform="rotate(-45 34.4997 57.4453)" fill="#F5F5F5"/>
<line x1="30.8457" y1="53.3886" x2="38.6414" y2="61.1843" stroke="#212121"/>
<line x1="30.1386" y1="61.1836" x2="37.9343" y2="53.3878" stroke="#212121"/>
<path d="M34.5527 19.6172C38.9338 20.2146 48.0543 24.0381 49.4881 34.5526" stroke="#F5F5F5" stroke-width="0.5"/>
<path d="M19.6172 34.5527C20.2146 30.1717 24.0381 21.0511 34.5526 19.6173" stroke="#F5F5F5" stroke-width="0.5"/>
<path d="M34.5527 49.4883C30.1717 48.8909 21.0511 45.0674 19.6173 34.5529" stroke="#F5F5F5" stroke-width="0.5"/>
<path d="M49.4883 34.5527C48.8909 38.9338 45.0674 48.0543 34.5529 49.4881" stroke="#F5F5F5" stroke-width="0.5"/>
<path d="M42.3168 10.2578C42.1796 16.0478 45.2691 27.4282 58.7247 26.6302" stroke="#F5F5F5" stroke-width="0.5"/>
<path d="M10.2578 26.6656C16.0478 26.8028 27.4282 23.7134 26.6302 10.2577" stroke="#F5F5F5" stroke-width="0.5"/>
<path d="M26.6656 58.7246C26.8028 52.9346 23.7134 41.5542 10.2577 42.3523" stroke="#F5F5F5" stroke-width="0.5"/>
<path d="M58.7246 42.3168C52.9346 42.1796 41.5542 45.2691 42.3523 58.7247" stroke="#F5F5F5" stroke-width="0.5"/>
</svg>
